<?xml version="1.0" encoding="UTF-8" standalone="no"?>
<!-- Created with Inkscape (http://www.inkscape.org/) -->

<svg
   xmlns:dc="http://purl.org/dc/elements/1.1/"
   xmlns:cc="http://creativecommons.org/ns#"
   xmlns:rdf="http://www.w3.org/1999/02/22-rdf-syntax-ns#"
   xmlns:svg="http://www.w3.org/2000/svg"
   xmlns="http://www.w3.org/2000/svg"
   xmlns:sodipodi="http://sodipodi.sourceforge.net/DTD/sodipodi-0.dtd"
   xmlns:inkscape="http://www.inkscape.org/namespaces/inkscape"
   width="49.107212mm"
   height="7.4931278mm"
   viewBox="0 0 49.107212 7.4931278"
   version="1.1"
   id="svg932"
   inkscape:version="0.92.2 (5c3e80d, 2017-08-06)"
   sodipodi:docname="logo_wo_fill_rgb.svg">
  <defs
     id="defs926" />
  <sodipodi:namedview
     id="base"
     pagecolor="#ffffff"
     bordercolor="#666666"
     borderopacity="1.0"
     inkscape:pageopacity="0.0"
     inkscape:pageshadow="2"
     inkscape:zoom="2.8"
     inkscape:cx="60.241129"
     inkscape:cy="-19.888748"
     inkscape:document-units="mm"
     inkscape:current-layer="layer1"
     showgrid="false"
     fit-margin-top="0"
     fit-margin-left="0"
     fit-margin-right="0"
     fit-margin-bottom="0"
     inkscape:window-width="1920"
     inkscape:window-height="1025"
     inkscape:window-x="0"
     inkscape:window-y="27"
     inkscape:window-maximized="1" />
  <metadata
     id="metadata929">
    <rdf:RDF>
      <cc:Work
         rdf:about="">
        <dc:format>image/svg+xml</dc:format>
        <dc:type
           rdf:resource="http://purl.org/dc/dcmitype/StillImage" />
        <dc:title></dc:title>
      </cc:Work>
    </rdf:RDF>
  </metadata>
  <g
     inkscape:label="Layer 1"
     inkscape:groupmode="layer"
     id="layer1"
     transform="translate(-120.58905,-95.949862)">
    <path
       inkscape:connector-curvature="0"
       d="m 126.83211,103.38238 h -1.32337 l -0.98004,-2.97984 -0.97965,2.97984 h -1.32342 l -1.63658,-5.434887 h 1.74763 l 0.67675,2.818817 0.93959,-2.818817 h 1.15175 l 0.93925,2.818817 0.67675,-2.818817 h 1.74757 z"
       style="fill:#5cb300;fill-rule:evenodd;stroke-width:0.26458332"
       id="path72" />
    <path
       inkscape:connector-curvature="0"
       d="m 128.89374,103.38238 v -5.434887 h 1.65677 v 5.434887 z"
       style="fill:#5cb300;fill-rule:evenodd;stroke-width:0.26458332"
       id="path74" />
    <path
       inkscape:connector-curvature="0"
       d="m 136.47088,101.20062 c 0.0301,0.54558 0.38378,0.84844 1.00981,0.84844 0.21246,0 0.42452,-0.0404 0.58594,-0.10067 0.17166,-0.071 0.27276,-0.14155 0.48485,-0.35367 l 0.99036,0.98957 c -0.39446,0.37383 -0.58637,0.51538 -0.9194,0.64664 -0.3338,0.14155 -0.71723,0.21206 -1.1925,0.21206 -1.72739,0 -2.58577,-0.919 -2.58577,-2.77778 0,-1.707141 0.93964,-2.778359 2.44461,-2.778359 1.45458,0 2.43462,1.03079 2.43462,2.576379 v 0.73739 z m 0.80796,-1.949181 v 0 c -0.49517,0 -0.80796,0.323109 -0.80796,0.848231 h 1.61599 c -0.0103,-0.535626 -0.31321,-0.848231 -0.80803,-0.848231 z"
       style="fill:#5cb300;fill-rule:evenodd;stroke-width:0.26458332"
       id="path76" />
    <path
       inkscape:connector-curvature="0"
       d="m 154.61479,102.74643 c -0.43448,0.45434 -1.03034,0.69656 -1.74758,0.69656 -0.7172,0 -1.32342,-0.24222 -1.74799,-0.69656 -0.45472,-0.48525 -0.5955,-1.00023 -0.5955,-2.14186 0,-1.010416 0.16142,-1.555299 0.5955,-2.020198 0.42457,-0.454713 1.03079,-0.697521 1.74799,-0.697521 0.71724,0 1.3234,0.242808 1.74758,0.697521 0.44447,0.474424 0.59589,1.009782 0.59589,2.070758 0,1.09107 -0.15142,1.61677 -0.59589,2.0913 z m -1.74758,-3.364181 v 0 c -0.51498,0 -0.68746,0.303133 -0.68746,1.253011 0,1.00979 0.16256,1.31313 0.68746,1.31313 0.52531,0 0.68707,-0.30334 0.68707,-1.31313 0,-0.949878 -0.17206,-1.253011 -0.68707,-1.253011 z"
       style="fill:#5cb300;fill-rule:evenodd;stroke-width:0.26458332"
       id="path78" />
    <path
       inkscape:connector-curvature="0"
       d="m 158.5049,103.38238 v -0.44442 c -0.2327,0.22241 -0.34375,0.30363 -0.53562,0.38378 -0.18161,0.0709 -0.40402,0.11139 -0.65696,0.11139 -1.09101,0 -1.79795,-0.6867 -1.79795,-1.73734 0,-0.99033 0.70694,-1.59612 1.8487,-1.59612 h 1.10101 v -0.141555 c 0,-0.485061 -0.23239,-0.676752 -0.81836,-0.676752 -0.39367,0 -0.56534,0.07056 -0.86826,0.363564 l -1.03079,-1.030393 c 0.33343,-0.313425 0.49522,-0.424206 0.76761,-0.535437 0.31316,-0.131604 0.68702,-0.192246 1.18219,-0.192246 1.61639,0 2.42437,0.656907 2.42437,1.970034 v 3.525495 z m -0.87894,-2.18176 v 0 c -0.31364,0 -0.5257,0.17172 -0.5257,0.43456 0,0.29297 0.22235,0.45394 0.61642,0.45394 0.51501,0 0.7474,-0.22167 0.7474,-0.74694 v -0.14156 z"
       style="fill:#5cb300;fill-rule:evenodd;stroke-width:0.26458332"
       id="path80" />
    <path
       inkscape:connector-curvature="0"
       d="m 143.02715,97.886798 c -0.25257,0 -0.49517,0.05096 -0.7271,0.141975 -0.22244,0.09075 -0.32351,0.161555 -0.55587,0.363696 v -0.444976 h -1.61636 -0.40437 c 0,0 0.40437,0.323718 0.40437,1.023514 v 4.411373 h 1.65682 v -3.25279 c 0,-0.454368 0.26281,-0.747341 0.66648,-0.747341 0.40437,0 0.66683,0.292973 0.66683,0.747341 v 3.25279 h 1.65722 v -3.474801 c 0,-1.262724 -0.65696,-2.020781 -1.74802,-2.020781 z"
       style="fill:#5cb300;fill-rule:evenodd;stroke-width:0.26458332"
       id="path82" />
    <path
       inkscape:connector-curvature="0"
       d="m 134.82358,98.008136 c -0.20217,-0.08025 -0.44405,-0.121338 -0.69699,-0.121338 -0.51498,0 -0.9293,0.162348 -1.31347,0.505671 v -0.444976 h -1.61594 -0.40445 c 0,0 0.40445,0.323718 0.40445,1.023514 v 4.462123 h 1.65679 v -3.30354 c 0,-0.454368 0.26241,-0.747341 0.67673,-0.747341 0.2224,0 0.36359,0.07056 0.58597,0.282893 l 1.25243,-1.272673 c -0.2426,-0.222408 -0.35327,-0.303424 -0.54552,-0.384333 z"
       style="fill:#5cb300;fill-rule:evenodd;stroke-width:0.26458332"
       id="path84" />
    <path
       inkscape:connector-curvature="0"
       d="m 164.30311,98.008136 c -0.20182,-0.08025 -0.44405,-0.121338 -0.69699,-0.121338 -0.51498,0 -0.92935,0.162348 -1.31307,0.505671 v -0.444976 h -1.616 -0.40441 c 0,0 0.40441,0.323718 0.40441,1.023514 v 4.411373 h 1.6564 v -3.25279 c 0,-0.454368 0.26252,-0.747341 0.67641,-0.747341 0.22243,0 0.36433,0.07056 0.58639,0.282893 l 1.2528,-1.272673 c -0.24265,-0.222408 -0.35409,-0.303424 -0.54594,-0.384333 z"
       style="fill:#5cb300;fill-rule:evenodd;stroke-width:0.26458332"
       id="path86" />
    <path
       inkscape:connector-curvature="0"
       d="m 129.71736,95.949862 c 0.43831,0 0.79846,0.350547 0.79846,0.788909 0,0.44823 -0.36015,0.798803 -0.79846,0.798803 -0.43836,0 -0.78891,-0.350573 -0.78891,-0.798803 0,-0.438362 0.35055,-0.788909 0.78891,-0.788909 z"
       style="fill:#5cb300;fill-rule:evenodd;stroke-width:0.26458332"
       id="path88" />
    <path
       inkscape:connector-curvature="0"
       d="m 148.23338,97.941117 c -0.21008,0 -0.47059,-0.03964 -0.76729,-0.005 -0.17942,0.0097 -0.35311,0.03077 -0.51647,0.07019 l -0.31991,-1.409625 c -0.11112,-0.452729 -0.56811,-0.729668 -1.02089,-0.618675 -0.45273,0.110913 -0.7294,0.567981 -0.61828,1.020947 l 0.29141,1.114399 c 0,0 0.0671,0.276886 0.0672,0.861933 l -0.002,7.94e-4 v 4.4204 h 1.61133 v -0.33737 c 0.47943,0.26104 0.90422,0.38089 1.27439,0.38089 1.15417,0 1.97091,-0.90376 1.97091,-2.05793 v -1.37202 c 0,-1.154567 -0.81674,-2.068994 -1.97091,-2.068994 z m -2.4448,-1.510983 v 0 c 0.17325,0 0.31358,0.140335 0.31358,0.313584 0,0.172985 -0.14033,0.313558 -0.31358,0.313558 -0.17315,0 -0.31356,-0.140573 -0.31356,-0.313558 0,-0.173249 0.14041,-0.313584 0.31356,-0.313584 z m 2.79328,4.875666 v 0 c 0,0.45722 -0.26143,0.66407 -0.54464,0.66407 -0.2939,0 -0.84921,-0.1851 -1.07823,-0.3267 v -1.764033 c 0.38129,-0.239263 0.78433,-0.413676 1.07823,-0.413676 0.3049,0 0.54464,0.152691 0.54464,0.653359 z"
       style="fill:#5cb300;fill-rule:evenodd;stroke-width:0.26458332"
       id="path90" />
    <path
       inkscape:connector-curvature="0"
       d="m 169.05384,95.978041 c -0.45278,-0.110993 -0.90977,0.165946 -1.02095,0.618675 l -0.31985,1.40962 c -0.16336,-0.03942 -0.33706,-0.06056 -0.51647,-0.07025 -0.2967,-0.03466 -0.55721,0.005 -0.76729,0.005 -1.15411,0 -1.97091,0.914427 -1.97091,2.068994 v 1.37202 c 0,1.15417 0.8168,2.05793 1.97091,2.05793 0.37018,0 0.79497,-0.11986 1.27439,-0.38089 v 0.33737 h 1.61131 v -4.420403 l -0.002,-7.94e-4 c 6e-5,-0.585046 0.0672,-0.861933 0.0672,-0.861933 l 0.29154,-1.114398 c 0.11112,-0.452967 -0.16555,-0.910035 -0.61833,-1.020948 z m -0.17976,0.452093 v 0 c 0.17314,0 0.31356,0.140335 0.31356,0.313584 0,0.172985 -0.14042,0.313558 -0.31356,0.313558 -0.1732,0 -0.31356,-0.140573 -0.31356,-0.313558 0,-0.173249 0.14036,-0.313584 0.31356,-0.313584 z m -1.17041,5.213036 v 0 c -0.22902,0.1416 -0.78433,0.3267 -1.07823,0.3267 -0.28321,0 -0.54464,-0.20685 -0.54464,-0.66407 v -1.18698 c 0,-0.500668 0.23968,-0.653359 0.54464,-0.653359 0.2939,0 0.69694,0.174413 1.07823,0.413676 z"
       style="fill:#5cb300;fill-rule:evenodd;stroke-width:0.26458332"
       id="path92" />
  </g>
</svg>
