<?xml version="1.0" encoding="UTF-8"?>
<!DOCTYPE svg PUBLIC "-//W3C//DTD SVG 1.1//EN" "http://www.w3.org/Graphics/SVG/1.1/DTD/svg11.dtd">
<!-- Creator: CorelDRAW 2017 -->
<svg xmlns="http://www.w3.org/2000/svg" xml:space="preserve" width="515.332mm" height="149.594mm" version="1.1" style="shape-rendering:geometricPrecision; text-rendering:geometricPrecision; image-rendering:optimizeQuality; fill-rule:evenodd; clip-rule:evenodd"
viewBox="0 0 8629.13 2504.92"
 xmlns:xlink="http://www.w3.org/1999/xlink">
 <defs>
  <style type="text/css">
   <![CDATA[
    .fil0 {fill:#FEFEFE;fill-rule:nonzero}
   ]]>
  </style>
 </defs>
 <g id="Слой_x0020_1">
  <metadata id="CorelCorpID_0Corel-Layer"/>
  <path class="fil0" d="M93.82 0l8535.31 0 0 2504.92 -8629.14 0 0 -2504.92 93.82 0zm8347.67 187.65l-8253.84 0 0 2129.62 8253.84 0 0 -2129.62z"/>
  <g id="_2416378935328">
   <path class="fil0" d="M852.51 543.01l53.63 0 132.82 381.63 2.63 0 51.86 -204.87 61.59 -187.31 138.07 0 0 19.33 -211.96 601.52 -78.25 0 -122.23 -332.43 -2.63 0 -118.74 332.43 -80.88 0 -212.83 -601.52 0 -19.33 138.07 0 62.45 188.17 55.39 204.01 2.63 0 128.39 -381.63zm712.3 500.38l87.07 0 0 104.63 -306.05 0 0 -104.63 87.07 0 0 -408.92 -80.01 0 0 -102 291.94 0 0 102 -80.01 0 0 408.92zm568.94 -119.6l138.97 204.87 0 18.5 -140.74 0 -126.62 -203.14 -109.92 0 0 203.14 -131.91 0 0 -615.59 262.97 0c67.4,0 120.47,20.68 159.16,62 38.69,41.32 58.02,91.01 58.02,149.07 0,39.25 -9.65,75.02 -29.01,107.3 -19.33,32.24 -46.31,56.86 -80.91,73.86zm-240.07 -87.93l131.91 0c26.98,0 48.98,-9.23 65.98,-27.7 17,-18.5 25.18,-41.21 24.62,-68.15 0,-26.38 -8.22,-48.52 -24.62,-66.43 -16.44,-17.86 -38.43,-26.8 -65.98,-26.8l-131.91 0 0 189.07zm853.9 -303.39l0 115.18 -244.46 0 0 124.9 228.67 0 0 115.18 -228.67 0 0 140.7 251.52 0 0 119.6 -384.3 0 0 -615.55 377.24 0zm605.01 617.32l-348.23 -353.52 0 351.76 -131.01 0 0 -618.22 41.32 0 345.6 351.76 0 -349.1 131.92 0 0 617.32 -39.59 0zm637.58 -434.44c0,22.89 -5.44,44.58 -16.29,65.08 -10.85,20.53 -25.93,36.67 -45.26,48.37 58.62,24.62 87.93,70.37 87.93,137.21 0,55.09 -17.3,99.19 -51.9,132.33 -34.56,33.14 -82.38,49.69 -143.32,49.69l-285.82 0 0 -614.69 261.2 0c57.46,0 104.07,16.29 139.8,48.82 35.77,32.5 53.67,76.94 53.67,133.19zm-203.14 -69.47l-120.47 0 0 139.83 120.47 0c22.29,0 40.01,-5.85 53.22,-17.6 13.17,-11.71 20.08,-27.85 20.64,-48.34 0.6,-22.29 -5.86,-40.16 -19.33,-53.67 -13.51,-13.47 -31.67,-20.23 -54.53,-20.23zm19.33 247.13l-139.8 0 0 140.7 145.99 0c22.26,0 39.86,-6 52.73,-18.05 12.91,-12.01 19.96,-28.56 21.13,-49.65 1.16,-26.98 -7.92,-47.21 -27.28,-60.68 -11.71,-8.22 -29.31,-12.31 -52.77,-12.31zm913.68 -52.77c0,93.79 -29.31,170.31 -87.93,229.53 -58.62,59.18 -134.54,88.79 -227.76,88.79 -87.37,0 -161.37,-28.3 -222.06,-84.85 -60.65,-56.56 -91.01,-134.39 -91.01,-233.47 0,-66.24 15.09,-124 45.3,-173.23 30.17,-49.24 68.86,-85.6 116.08,-109.06 47.17,-23.45 98.63,-35.16 154.32,-35.16 41.06,0 80.05,7.02 116.98,21.09 36.93,14.07 70.18,34 99.79,59.82 29.61,25.78 53.07,59.18 70.37,100.24 17.3,41.02 25.93,86.47 25.93,136.3zm-495.98 0c0,63.91 17.3,112.85 51.9,146.85 34.6,34 77.99,51 130.15,51 51.57,0 94.95,-17 130.15,-51 35.17,-34 52.77,-82.94 52.77,-146.85 0,-62.15 -17.6,-110.37 -52.77,-144.67 -35.2,-34.3 -78.29,-51.45 -129.29,-51.45 -51.57,0 -94.95,17.15 -130.15,51.45 -35.17,34.3 -52.77,82.53 -52.77,144.67zm951.51 205.77l-255.91 0 -47.47 102 -137.21 0 0 -17.6 283.19 -603.24 60.65 0 281.43 603.24 0 17.6 -136.31 0 -48.37 -102zm-127.53 -313.93l-85.3 203.11 170.61 0 -85.3 -203.11zm750.09 191.7l138.97 204.87 0 18.5 -140.73 0 -126.62 -203.14 -109.92 0 0 203.14 -131.92 0 0 -615.59 262.97 0c67.4,0 120.47,20.68 159.16,62 38.69,41.32 58.02,91.01 58.02,149.07 0,39.25 -9.65,75.02 -29.01,107.3 -19.33,32.24 -46.31,56.86 -80.91,73.86zm-240.07 -87.93l131.92 0c26.98,0 48.98,-9.23 65.98,-27.7 17,-18.5 25.18,-41.21 24.62,-68.15 0,-26.38 -8.22,-48.52 -24.62,-66.43 -16.44,-17.86 -38.43,-26.8 -65.98,-26.8l-131.92 0 0 189.07zm477.52 -302.52l228.66 0c93.22,0 166.78,30.06 220.71,90.14 53.93,60.09 80.91,131.76 80.91,215.01 1.16,83.84 -25.22,156.38 -79.15,217.63 -53.93,61.28 -128.09,91.91 -222.47,91.91l-228.66 0 0 -614.69zm131.05 495.98l95.85 0c53.93,0 96.15,-18.46 126.62,-55.43 30.47,-36.93 45.75,-81.78 45.75,-134.54 0,-52.17 -15.42,-96.41 -46.2,-132.78 -30.77,-36.33 -72.84,-54.53 -126.17,-54.53l-95.85 0 0 377.28z"/>
   <path class="fil0" d="M665.77 1974.22l0 -162.69 144.38 0c108.46,0 179.54,-76.93 179.54,-174.4 0,-98.21 -69.62,-175.15 -179.54,-175.86 -67.44,0 -137.81,0 -205.21,0l0 512.95 60.83 0zm-0.75 -217.63l0 -241.09c49.13,0 98.21,0 145.13,0 70.33,0.71 120.17,50.55 120.17,120.17 0,71.08 -52.02,120.92 -120.17,120.92l-145.13 0zm673.5 21.99c71.83,-17.6 122.38,-73.29 122.38,-152.44 0,-93.07 -69.62,-164.86 -175.15,-164.86l-204.46 0 0 513.7 61.55 0 0 -188.32 134.13 0 142.16 188.32 64.47 0 0 -8.78 -145.09 -187.61zm-196.39 -42.52l0 -220.56 143.62 0c66.69,0 115.78,43.95 115.78,109.92 0,66.69 -50.55,110.64 -115.78,110.64l-143.62 0zm920.44 -17.56c0,-162.69 -116.53,-265.29 -260.19,-265.29 -143.62,0 -260.15,101.14 -260.15,265.29 0,163.4 115.07,263.79 259.44,263.79 154.62,0 260.9,-108.46 260.9,-263.79zm-458.76 0c0,-126.06 87.18,-209.6 198.57,-209.6 113.6,0 198.6,85 198.6,209.6 0,124.56 -86.47,208.1 -199.32,208.1 -112.14,0 -197.85,-83.54 -197.85,-208.1z"/>
  </g>
 </g>
</svg>
